<?xml version="1.0" encoding="UTF-8"?>
<svg id="Layer_1" xmlns="http://www.w3.org/2000/svg" xmlns:xlink="http://www.w3.org/1999/xlink" version="1.1" viewBox="0 0 2000 1000">
  <!-- Generator: Adobe Illustrator 29.0.0, SVG Export Plug-In . SVG Version: 2.1.0 Build 186)  -->
  <defs>
    <style>
      .st0 {
        fill: url(#linear-gradient2);
      }

      .st1 {
        fill: url(#linear-gradient1);
      }

      .st2 {
        fill: url(#linear-gradient3);
      }

      .st3 {
        fill: #005baa;
      }

      .st4 {
        fill: url(#linear-gradient);
      }

      .st5 {
        fill: #a7a9ac;
      }
    </style>
    <linearGradient id="linear-gradient" x1="90.6" y1="573" x2="396.2" y2="388.8" gradientTransform="translate(0 1001.2) scale(1 -1)" gradientUnits="userSpaceOnUse">
      <stop offset="0" stop-color="#03bfd7"/>
      <stop offset="1" stop-color="#005baa"/>
    </linearGradient>
    <linearGradient id="linear-gradient1" x1="147.1" y1="666.7" x2="452.7" y2="482.5" gradientTransform="translate(0 1001.2) scale(1 -1)" gradientUnits="userSpaceOnUse">
      <stop offset="0" stop-color="#03bfd7"/>
      <stop offset="1" stop-color="#005baa"/>
    </linearGradient>
    <linearGradient id="linear-gradient2" x1="69.3" y1="537.6" x2="374.9" y2="353.4" gradientTransform="translate(0 1001.2) scale(1 -1)" gradientUnits="userSpaceOnUse">
      <stop offset="0" stop-color="#03bfd7"/>
      <stop offset="1" stop-color="#005baa"/>
    </linearGradient>
    <linearGradient id="linear-gradient3" x1="107.4" y1="600.8" x2="413" y2="416.6" gradientTransform="translate(0 1001.2) scale(1 -1)" gradientUnits="userSpaceOnUse">
      <stop offset="0" stop-color="#03bfd7"/>
      <stop offset="1" stop-color="#005baa"/>
    </linearGradient>
  </defs>
  <g id="_4">
    <circle class="st4" cx="247.4" cy="522.7" r="67.9"/>
    <path class="st1" d="M315.3,459.6c4-11,12.7-19.7,23.8-23.8-11-4-19.7-12.7-23.8-23.8-4,11-12.7,19.7-23.7,23.8,11,4,19.7,12.7,23.7,23.8Z"/>
    <path class="st0" d="M315.3,573.9c-6.4,17.7-20.3,31.6-38,38.1,17.6,6.5,31.5,20.4,38,38,6.5-17.6,20.4-31.5,38-38-17.7-6.5-31.6-20.4-38-38.1Z"/>
    <path class="st2" d="M327.9,358.9c-12.4-19.5-22.9-40.1-31.5-61.6l-14.9-37.3-14.9,37.3c-8.5,21.5-19.1,42.1-31.4,61.6-95.6,13.3-151.1,63.5-151.1,63.5,37.9,278,197.5,324.5,197.5,324.5,0,0,159.6-46.5,197.5-324.5-.1,0-55.7-50.2-151.2-63.5ZM281.5,677c-71.1,0-128.7-57.6-128.7-128.7,0-11.1,1.4-22.1,4.2-32.8h0s4.8-29.9,38.3-74.2c33.6-44.3,63.6-81.5,86.1-138.1,22.5,56.6,52.5,93.9,86.1,138.1s38.3,74.2,38.3,74.2h0c18.1,68.7-22.9,139.1-91.7,157.3-10.7,2.8-21.7,4.2-32.7,4.2Z"/>
    <path class="st5" d="M506.7,404.4l-6.3-5.7c-2.2-2-22.8-20.2-59.7-38.4-36-17.7-74.7-29.1-114.5-33.9,3.2,6,6.5,11.9,10,17.6,10.9,1.7,21.7,3.9,32.3,6.6,22.5,5.8,44.3,13.9,65.2,24.1,35.5,17.5,55.2,35.1,56,35.9l6.3,5.7-1.1,8.4c-8.9,65-25.1,123.1-48.2,172.6-18.7,40-41.9,74.6-69.1,102.9-47.1,48.9-89.8,61.8-91.6,62.3l-4.5,1.3-4.5-1.3c-1.8-.5-44.5-13.4-91.6-62.3-27.1-28.2-50.4-62.8-69.1-102.9-23.1-49.5-39.3-107.6-48.2-172.6l-1.1-8.4,6.2-5.7c.8-.7,20.5-18.4,56-35.9,20.8-10.2,42.7-18.3,65.1-24.1,10.6-2.7,21.4-4.9,32.3-6.6,3.4-5.7,6.8-11.5,10-17.6-39.8,4.8-78.5,16.2-114.5,33.9-36.9,18.1-57.5,36.3-59.7,38.4l-6.3,5.7-6.2,5.6,1.1,8.4,1.1,8.4c9.1,66.6,25.7,126.2,49.5,177.2,19.5,41.6,43.7,77.7,72.1,107.2,19.5,20.6,41.9,38.2,66.5,52.2,10.2,5.9,21,10.8,32.2,14.4l4.5,1.3,4.5,1.3,4.5-1.3,4.5-1.3c11.2-3.6,22-8.5,32.2-14.4,24.6-14.1,47-31.7,66.5-52.2,28.4-29.5,52.6-65.6,72.1-107.2,23.8-51,40.4-110.6,49.5-177.2l1.1-8.4,1.1-8.4-6.3-5.6Z"/>
    <path class="st5" d="M576.8,405.9h56.8c36.7,0,54,17.6,54,54v139c0,36.4-17.3,54-54,54h-56.8v-247ZM614.6,619.7h13.8c14.8,0,21.5-7.1,21.5-21.9v-136.8c0-14.8-6.7-21.9-21.5-21.9h-13.8v180.6Z"/>
    <path class="st5" d="M765.9,509.3c7.4-9.2,9.9-14.8,9.9-23.6v-34.2c0-9.9-4.6-14.5-13.8-14.5h-4.6c-9.5,0-14.1,4.6-14.1,14.5v43.7h-36v-45.5c0-30.7,15.2-45.9,45.5-45.9h14.8c30.4,0,45.5,15.2,45.5,45.9v34.2c0,17.3-3.9,30-19,48.7l-39.9,50.1c-7.8,9.9-10.2,15.5-10.2,27.2v8.8h69.2v34.2h-106.6v-44.4c0-18,4.6-30.4,19.4-49l39.9-50.1Z"/>
    <path class="st3" d="M984.7,568.9v40.2c0,30.7-15.2,45.9-45.9,45.9h-16.6c-30.7,0-45.5-15.2-45.5-45.5v-52.3h36.7v50.8c0,9.5,4.6,14.1,14.5,14.1h4.9c9.9,0,14.5-4.6,14.5-14.1v-33.8c0-10.2-3.5-14.8-10.6-20.1l-38-27.8c-16.9-11.9-21.9-23.6-21.9-42.7v-33.9c0-30.7,15.2-45.9,45.9-45.9h15.9c30.4,0,45.5,15.2,45.5,45.5v44.8h-37.1v-43.4c0-9.5-4.6-14.1-14.1-14.1h-4.6c-9.5,0-14.1,4.6-14.1,14.1v27.5c0,10.2,3.5,15.2,10.6,20.1l38,27.9c16.7,12,22,22.6,22,42.7Z"/>
    <path class="st3" d="M1117.3,652.9h-37.4l-4.9-38.8h-39.2l-4.6,38.8h-34.9l35.3-247.3h50.1l35.6,247.3ZM1040.1,580.6h30.7l-15.5-124.9-15.2,124.9Z"/>
    <path class="st3" d="M1204.8,652.9l-38.5-166.2.3,43.4v122.8h-33.9v-247h44.1l35.3,152.4-.4-41.3v-111.2h33.9v247h-40.9Z"/>
    <path class="st3" d="M1306.4,652.9h-37.7v-247h37.7v247Z"/>
    <path class="st3" d="M1355.5,652.9v-212.8h-33.9v-34.2h105.5v34.2h-33.9v212.8h-37.8Z"/>
    <path class="st3" d="M1480,652.9h-37.7v-247h37.7v247Z"/>
    <path class="st3" d="M1500.2,439.8v-33.9h90v37.1l-54.6,176.1h54.6v33.9h-91.7v-37l55-176.1h-53.2Z"/>
    <path class="st3" d="M1692.1,405.9v34.2h-46.2v69.9h44.5v34.2h-44.5v74.4h46.9v34.2h-84.7v-247h84Z"/>
    <path class="st3" d="M1821.2,568.9v84h-37.8v-83.3c0-10.9-4.9-15.9-15.9-15.9h-16.9v99.1h-37.8v-247h62.1c30.7,0,45.9,15.2,45.9,45.9v46.6c0,21.9-7.8,32.4-21.5,38,15.5,4.3,21.9,13.9,21.9,32.6ZM1769,439.5h-18.3v81.5h16.9c10.6,0,15.5-4.9,15.5-15.2v-52.3c0-9.5-4.6-14.1-14.1-14.1h0Z"/>
    <path class="st3" d="M1950,568.9v40.2c0,30.7-15.2,45.9-45.9,45.9h-16.6c-30.7,0-45.5-15.2-45.5-45.5v-52.3h36.8v50.8c0,9.5,4.6,14.1,14.5,14.1h4.9c9.9,0,14.5-4.6,14.5-14.1v-33.8c0-10.2-3.5-14.8-10.6-20.1l-38-27.9c-16.9-11.9-21.9-23.6-21.9-42.7v-33.8c0-30.7,15.2-45.9,45.9-45.9h15.9c30.3,0,45.5,15.2,45.5,45.5v44.8h-37.2v-43.4c0-9.5-4.6-14.1-14.1-14.1h-4.6c-9.5,0-14.1,4.6-14.1,14.1v27.5c0,10.2,3.5,15.2,10.6,20.1l38,27.9c16.7,12,22,22.6,22,42.7Z"/>
  </g>
</svg>