<?xml version="1.0" encoding="UTF-8"?>
<svg xmlns="http://www.w3.org/2000/svg" xmlns:xlink="http://www.w3.org/1999/xlink" version="1.1" viewBox="0 0 1000 1000">
  <!-- Generator: Adobe Illustrator 29.0.0, SVG Export Plug-In . SVG Version: 2.1.0 Build 186)  -->
  <defs>
    <style>
      .st0 {
        fill: url(#linear-gradient2);
      }

      .st1 {
        fill: url(#linear-gradient1);
      }

      .st2 {
        fill: url(#linear-gradient3);
      }

      .st3 {
        fill: #005baa;
      }

      .st4 {
        fill: url(#linear-gradient);
      }

      .st5 {
        display: none;
      }

      .st6 {
        fill: #a7a9ac;
      }
    </style>
    <linearGradient id="linear-gradient" x1="138.8" y1="150.1" x2="717.1" y2="498.7" gradientTransform="translate(0 178.4)" gradientUnits="userSpaceOnUse">
      <stop offset="0" stop-color="#03bfd7"/>
      <stop offset="1" stop-color="#005baa"/>
    </linearGradient>
    <linearGradient id="linear-gradient1" x1="245.6" y1="-27.2" x2="824" y2="321.4" gradientTransform="translate(0 178.4)" gradientUnits="userSpaceOnUse">
      <stop offset="0" stop-color="#03bfd7"/>
      <stop offset="1" stop-color="#005baa"/>
    </linearGradient>
    <linearGradient id="linear-gradient2" x1="98.3" y1="217.2" x2="676.8" y2="565.6" gradientTransform="translate(0 178.4)" gradientUnits="userSpaceOnUse">
      <stop offset="0" stop-color="#03bfd7"/>
      <stop offset="1" stop-color="#005baa"/>
    </linearGradient>
    <linearGradient id="linear-gradient3" x1="170.6" y1="97.4" x2="748.9" y2="446" gradientTransform="translate(0 178.4)" gradientUnits="userSpaceOnUse">
      <stop offset="0" stop-color="#03bfd7"/>
      <stop offset="1" stop-color="#005baa"/>
    </linearGradient>
  </defs>
  <g id="Layer_1" class="st5">
    <path class="st6" d="M68.2,753.2h35.7c23.1,0,33.9,11.1,33.9,33.9v87.4c0,22.9-10.9,33.9-33.9,33.9h-35.7v-155.3h0ZM92,887.6h8.6c9.3,0,13.5-4.5,13.5-13.8v-86c0-9.3-4.2-13.8-13.5-13.8h-8.6v113.6Z"/>
    <path class="st6" d="M187.2,818.2c4.7-5.8,6.2-9.3,6.2-14.9v-21.5c0-6.2-2.9-9.1-8.6-9.1h-2.9c-6,0-8.9,2.9-8.9,9.1v27.5h-22.6v-28.6c0-19.3,9.5-28.9,28.6-28.9h9.3c19.1,0,28.6,9.5,28.6,28.9v21.5c0,10.9-2.4,18.8-11.9,30.6l-25.1,31.5c-4.9,6.2-6.4,9.8-6.4,17.1v5.5h43.5v21.5h-67.1v-27.9c0-11.3,2.9-19.1,12.2-30.8l25.1-31.5Z"/>
    <g>
      <path class="st3" d="M324.7,855.7v25.3c0,19.3-9.5,28.9-28.9,28.9h-10.5c-19.3,0-28.6-9.5-28.6-28.6v-32.9h23.1v31.9c0,6,2.9,8.9,9.1,8.9h3.1c6.2,0,9.1-2.9,9.1-8.9v-21.3c0-6.4-2.2-9.3-6.7-12.6l-23.9-17.5c-10.6-7.5-13.8-14.9-13.8-26.9v-21.3c0-19.3,9.5-28.9,28.8-28.9h10c19.1,0,28.6,9.5,28.6,28.6v28.2h-23.3v-27.3c0-6-2.9-8.9-8.9-8.9h-2.9c-6,0-8.9,2.9-8.9,8.9v17.3c0,6.4,2.2,9.5,6.7,12.6l23.9,17.5c10.5,7.5,13.8,14.2,13.8,26.9h.2Z"/>
      <path class="st3" d="M408.2,908.5h-23.5l-3.1-24.4h-24.6l-2.9,24.4h-22l22.2-155.5h31.5l22.4,155.5ZM359.6,863h19.3l-9.8-78.5-9.5,78.5Z"/>
      <path class="st3" d="M463.2,908.5l-24.2-104.5.2,27.3v77.2h-21.3v-155.3h27.7l22.2,95.9-.2-26v-69.9h21.3v155.3h-25.7Z"/>
      <path class="st3" d="M527,908.5h-23.7v-155.3h23.7v155.3Z"/>
      <path class="st3" d="M557.9,908.5v-133.8h-21.3v-21.5h66.3v21.5h-21.3v133.8h-23.7Z"/>
      <path class="st3" d="M636.2,908.5h-23.7v-155.3h23.7v155.3Z"/>
      <path class="st3" d="M648.9,774.5v-21.3h56.6v23.3l-34.4,110.7h34.4v21.3h-57.7v-23.3l34.6-110.7h-33.5Z"/>
      <path class="st3" d="M769.6,753.2v21.5h-29.1v43.9h28v21.5h-28v46.8h29.5v21.5h-53.2v-155.3h52.8Z"/>
      <path class="st3" d="M850.8,855.7v52.8h-23.7v-52.4c0-6.9-3.1-10-10-10h-10.6v62.3h-23.7v-155.3h39.1c19.3,0,28.8,9.5,28.8,28.9v29.3c0,13.8-4.9,20.4-13.5,23.9,9.8,2.7,13.8,8.7,13.8,20.5h-.2ZM817.9,774.3h-11.5v51.2h10.6c6.6,0,9.8-3.1,9.8-9.5v-32.9c0-6-2.9-8.9-8.9-8.9h0Z"/>
      <path class="st3" d="M931.8,855.7v25.3c0,19.3-9.5,28.9-28.8,28.9h-10.5c-19.3,0-28.6-9.5-28.6-28.6v-32.9h23.1v31.9c0,6,2.9,8.9,9.1,8.9h3.1c6.2,0,9.1-2.9,9.1-8.9v-21.3c0-6.4-2.2-9.3-6.6-12.6l-23.9-17.5c-10.6-7.5-13.8-14.9-13.8-26.9v-21.3c0-19.3,9.5-28.9,28.8-28.9h10c19.1,0,28.6,9.5,28.6,28.6v28.2h-23.4v-27.3c0-6-2.9-8.9-8.9-8.9h-2.9c-6,0-8.9,2.9-8.9,8.9v17.3c0,6.4,2.2,9.5,6.7,12.6l23.9,17.5c10.5,7.5,13.8,14.2,13.8,26.9h.1Z"/>
    </g>
  </g>
  <g id="Layer_3">
    <circle class="st4" cx="435.5" cy="507.4" r="128.5"/>
    <path class="st1" d="M564,388c7.7-20.9,24-37.4,44.9-44.9-20.9-7.7-37.4-24-44.9-44.9-7.7,20.9-24,37.4-44.9,44.9,20.9,7.7,37.4,24,44.9,44.9Z"/>
    <path class="st0" d="M564,604.1c-12.2,33.5-38.4,59.9-71.9,72.2,33.3,12.2,59.8,38.6,71.9,71.9,12.2-33.3,38.6-59.8,71.9-71.9-33.5-12.3-59.8-38.7-71.9-72.2h0Z"/>
    <path class="st2" d="M587.9,197.4c-23.4-36.9-43.4-76-59.6-116.6l-28.1-70.7-28.1,70.7c-16.2,40.7-36,79.7-59.5,116.6-180.9,25.2-286,120.3-286,120.3,71.8,526.2,373.8,614.2,373.8,614.2,0,0,302.1-88.1,373.7-614.2-.2,0-105.4-95-286.1-120.3h-.2ZM500.1,799.4c-134.5,0-243.5-109.1-243.5-243.7s2.7-41.7,8.1-62c5.4-20.3,9-56.6,72.5-140.4,63.5-83.8,120.4-154.2,163-261.4,42.6,107.2,99.4,177.6,162.9,261.4,63.7,83.8,72.5,140.4,72.5,140.4,34.2,130-43.4,263.3-173.4,297.6-20.3,5.4-41,8.1-62,8.1h-.2Z"/>
    <path class="st6" d="M926.3,283.4l-11.9-10.7c-4.2-3.8-43.2-38.3-112.9-72.7-68.2-33.5-141.4-55.1-216.8-64.3,6,11.4,12.3,22.5,18.8,33.2,20.6,3.3,41.1,7.4,61.3,12.6,42.5,11,83.9,26.3,123.4,45.6,67.3,33,104.3,66.5,106,67.9l11.9,10.8-2.1,15.8c-16.8,123-47.4,233-91.3,326.7-35.4,75.8-79.4,141.3-130.8,194.7-89,92.5-169.9,116.8-173.4,117.9l-8.4,2.4-8.6-2.4c-3.5-1.1-84.2-25.4-173.2-117.9-51.3-53.4-95.3-118.9-130.8-194.7-43.8-93.7-74.5-203.7-91.1-326.7l-2.1-15.8,11.9-10.8c1.5-1.4,38.9-34.8,106-67.9,39.5-19.4,80.8-34.7,123.3-45.6,20.1-5.1,40.4-9.3,61.3-12.6,6.5-10.8,12.8-21.8,18.8-33.2-75.4,9-148.6,30.8-216.8,64.3-69.8,34.2-108.7,68.8-112.9,72.7l-11.9,10.7-11.9,10.7,2.1,15.8,2.1,15.8c17.1,126.1,48.8,238.9,93.8,335.4,36.8,78.8,82.7,147.1,136.3,202.8,36.9,39,79.3,72.2,125.8,98.9,19.2,11.3,39.6,20.4,60.8,27.2l8.6,2.4,8.6,2.4,8.4-2.4,8.6-2.4c21.2-6.9,41.6-16.1,60.8-27.2,46.5-26.6,89-59.9,125.8-98.9,53.6-55.8,99.5-124,136.3-202.8,44.9-96.5,76.4-209.3,93.8-335.4l2.1-15.8,2.1-15.8-11.9-10.7h.2Z"/>
  </g>
</svg>